<mxfile host="app.diagrams.net" agent="Mozilla/5.0 (Windows NT 10.0; Win64; x64) AppleWebKit/537.36 (KHTML, like Gecko) Chrome/131.0.0.0 Safari/537.36" version="25.0.3">
  <diagram name="페이지-1" id="7HrRkHR1NY6tnT-GMf6_">
    <mxGraphModel dx="1335" dy="617" grid="1" gridSize="10" guides="1" tooltips="1" connect="1" arrows="1" fold="1" page="1" pageScale="1" pageWidth="827" pageHeight="1169" math="0" shadow="0">
      <root>
        <mxCell id="0" />
        <mxCell id="1" parent="0" />
        <mxCell id="QGBmluoWt0_tVh98rsNW-1" value="Actor" style="shape=umlActor;verticalLabelPosition=bottom;verticalAlign=top;html=1;outlineConnect=0;" vertex="1" parent="1">
          <mxGeometry x="80" y="40" width="30" height="60" as="geometry" />
        </mxCell>
        <mxCell id="QGBmluoWt0_tVh98rsNW-4" value="&amp;lt;&amp;lt;include&amp;gt;&amp;gt;" style="endArrow=open;endSize=12;dashed=1;html=1;rounded=0;" edge="1" parent="1">
          <mxGeometry y="10" width="160" relative="1" as="geometry">
            <mxPoint x="80" y="220" as="sourcePoint" />
            <mxPoint x="240" y="220" as="targetPoint" />
            <mxPoint as="offset" />
          </mxGeometry>
        </mxCell>
        <mxCell id="QGBmluoWt0_tVh98rsNW-5" value="" style="endArrow=open;endFill=1;endSize=12;html=1;rounded=0;" edge="1" parent="1">
          <mxGeometry width="160" relative="1" as="geometry">
            <mxPoint x="80" y="170" as="sourcePoint" />
            <mxPoint x="240" y="170" as="targetPoint" />
          </mxGeometry>
        </mxCell>
        <mxCell id="QGBmluoWt0_tVh98rsNW-6" value="&amp;lt;&amp;lt;extend&amp;gt;&amp;gt;" style="endArrow=open;endSize=12;dashed=1;html=1;rounded=0;" edge="1" parent="1">
          <mxGeometry y="10" width="160" relative="1" as="geometry">
            <mxPoint x="80" y="270" as="sourcePoint" />
            <mxPoint x="240" y="270" as="targetPoint" />
            <mxPoint as="offset" />
          </mxGeometry>
        </mxCell>
        <mxCell id="QGBmluoWt0_tVh98rsNW-7" value="" style="endArrow=block;endSize=16;endFill=0;html=1;rounded=0;" edge="1" parent="1">
          <mxGeometry width="160" relative="1" as="geometry">
            <mxPoint x="80" y="310" as="sourcePoint" />
            <mxPoint x="240" y="310" as="targetPoint" />
          </mxGeometry>
        </mxCell>
        <mxCell id="QGBmluoWt0_tVh98rsNW-8" value="규칙1. 연관 관계(실선 화살표)는&lt;div&gt;액터 -&amp;gt; 유스케이스 또는&lt;/div&gt;&lt;div&gt;유스케이스 -&amp;gt; 액터&lt;/div&gt;&lt;div&gt;형식만 가능하다&lt;/div&gt;" style="text;html=1;align=center;verticalAlign=middle;resizable=0;points=[];autosize=1;strokeColor=none;fillColor=none;" vertex="1" parent="1">
          <mxGeometry x="280" y="40" width="200" height="70" as="geometry" />
        </mxCell>
        <mxCell id="QGBmluoWt0_tVh98rsNW-9" value="Use Case" style="ellipse;whiteSpace=wrap;html=1;" vertex="1" parent="1">
          <mxGeometry x="150" y="50" width="120" height="60" as="geometry" />
        </mxCell>
        <mxCell id="QGBmluoWt0_tVh98rsNW-10" value="Actor" style="shape=umlActor;verticalLabelPosition=bottom;verticalAlign=top;html=1;outlineConnect=0;" vertex="1" parent="1">
          <mxGeometry x="280" y="140" width="30" height="60" as="geometry" />
        </mxCell>
        <mxCell id="QGBmluoWt0_tVh98rsNW-11" value="Use Case" style="ellipse;whiteSpace=wrap;html=1;" vertex="1" parent="1">
          <mxGeometry x="480" y="140" width="120" height="60" as="geometry" />
        </mxCell>
        <mxCell id="QGBmluoWt0_tVh98rsNW-12" value="" style="endArrow=open;endFill=1;endSize=12;html=1;rounded=0;entryX=0;entryY=0.5;entryDx=0;entryDy=0;" edge="1" parent="1" source="QGBmluoWt0_tVh98rsNW-10" target="QGBmluoWt0_tVh98rsNW-11">
          <mxGeometry width="160" relative="1" as="geometry">
            <mxPoint x="330" y="169.5" as="sourcePoint" />
            <mxPoint x="470" y="170" as="targetPoint" />
          </mxGeometry>
        </mxCell>
        <mxCell id="QGBmluoWt0_tVh98rsNW-13" value="Use Case" style="ellipse;whiteSpace=wrap;html=1;" vertex="1" parent="1">
          <mxGeometry x="280" y="260" width="120" height="60" as="geometry" />
        </mxCell>
        <mxCell id="QGBmluoWt0_tVh98rsNW-14" value="Actor" style="shape=umlActor;verticalLabelPosition=bottom;verticalAlign=top;html=1;outlineConnect=0;" vertex="1" parent="1">
          <mxGeometry x="570" y="260" width="30" height="60" as="geometry" />
        </mxCell>
        <mxCell id="QGBmluoWt0_tVh98rsNW-15" value="" style="endArrow=open;endFill=1;endSize=12;html=1;rounded=0;exitX=1;exitY=0.5;exitDx=0;exitDy=0;" edge="1" parent="1" source="QGBmluoWt0_tVh98rsNW-13" target="QGBmluoWt0_tVh98rsNW-14">
          <mxGeometry width="160" relative="1" as="geometry">
            <mxPoint x="430" y="290" as="sourcePoint" />
            <mxPoint x="540" y="290" as="targetPoint" />
          </mxGeometry>
        </mxCell>
        <mxCell id="QGBmluoWt0_tVh98rsNW-17" value="규칙2. 포함, 확장 관계는&lt;div&gt;&amp;nbsp; &amp;nbsp; &amp;nbsp; &amp;nbsp; &amp;nbsp; &amp;nbsp; &amp;nbsp; &amp;nbsp; &amp;nbsp; &amp;nbsp; &amp;nbsp; &amp;nbsp; &amp;nbsp; &amp;nbsp; &amp;nbsp; 유스케이스 끼리만 가능하다!&lt;/div&gt;" style="text;html=1;align=center;verticalAlign=middle;resizable=0;points=[];autosize=1;strokeColor=none;fillColor=none;" vertex="1" parent="1">
          <mxGeometry x="110" y="360" width="280" height="40" as="geometry" />
        </mxCell>
        <mxCell id="QGBmluoWt0_tVh98rsNW-18" value="내 정보 조회" style="ellipse;whiteSpace=wrap;html=1;" vertex="1" parent="1">
          <mxGeometry x="80" y="400" width="120" height="60" as="geometry" />
        </mxCell>
        <mxCell id="QGBmluoWt0_tVh98rsNW-19" value="로그인" style="ellipse;whiteSpace=wrap;html=1;" vertex="1" parent="1">
          <mxGeometry x="360" y="400" width="120" height="60" as="geometry" />
        </mxCell>
        <mxCell id="QGBmluoWt0_tVh98rsNW-20" value="&amp;lt;&amp;lt;include&amp;gt;&amp;gt;" style="endArrow=open;endSize=12;dashed=1;html=1;rounded=0;exitX=1;exitY=0.5;exitDx=0;exitDy=0;entryX=0;entryY=0.5;entryDx=0;entryDy=0;" edge="1" parent="1" source="QGBmluoWt0_tVh98rsNW-18" target="QGBmluoWt0_tVh98rsNW-19">
          <mxGeometry y="10" width="160" relative="1" as="geometry">
            <mxPoint x="170" y="439.40999999999997" as="sourcePoint" />
            <mxPoint x="330" y="439.40999999999997" as="targetPoint" />
            <mxPoint as="offset" />
          </mxGeometry>
        </mxCell>
        <mxCell id="QGBmluoWt0_tVh98rsNW-21" value="회원가입" style="ellipse;whiteSpace=wrap;html=1;" vertex="1" parent="1">
          <mxGeometry x="80" y="505" width="120" height="65" as="geometry" />
        </mxCell>
        <mxCell id="QGBmluoWt0_tVh98rsNW-22" value="프로필 사진 등록" style="ellipse;whiteSpace=wrap;html=1;" vertex="1" parent="1">
          <mxGeometry x="360" y="505" width="120" height="65" as="geometry" />
        </mxCell>
        <mxCell id="QGBmluoWt0_tVh98rsNW-23" value="&amp;lt;&amp;lt;extend&amp;gt;&amp;gt;" style="endArrow=open;endSize=12;dashed=1;html=1;rounded=0;entryX=1;entryY=0.5;entryDx=0;entryDy=0;exitX=0;exitY=0.5;exitDx=0;exitDy=0;" edge="1" parent="1" source="QGBmluoWt0_tVh98rsNW-22" target="QGBmluoWt0_tVh98rsNW-21">
          <mxGeometry y="10" width="160" relative="1" as="geometry">
            <mxPoint x="230" y="600" as="sourcePoint" />
            <mxPoint x="360" y="599.4100000000001" as="targetPoint" />
            <mxPoint as="offset" />
          </mxGeometry>
        </mxCell>
        <mxCell id="QGBmluoWt0_tVh98rsNW-25" value="규칙3. 일반화 관계는&lt;div&gt;&amp;nbsp; &amp;nbsp; &amp;nbsp; &amp;nbsp; &amp;nbsp; &amp;nbsp; &amp;nbsp; &amp;nbsp; &amp;nbsp; &amp;nbsp; &amp;nbsp; &amp;nbsp; &amp;nbsp; &amp;nbsp; &amp;nbsp; &amp;nbsp; &amp;nbsp; &amp;nbsp; &amp;nbsp; &amp;nbsp; &amp;nbsp; &amp;nbsp; &amp;nbsp; &amp;nbsp; &amp;nbsp; &amp;nbsp; &amp;nbsp; &amp;nbsp; &amp;nbsp; &amp;nbsp;액터 끼리 또는 유스케이스 끼리만 가능하다&lt;/div&gt;" style="text;html=1;align=center;verticalAlign=middle;resizable=0;points=[];autosize=1;strokeColor=none;fillColor=none;" vertex="1" parent="1">
          <mxGeometry x="-50" y="610" width="450" height="40" as="geometry" />
        </mxCell>
        <mxCell id="QGBmluoWt0_tVh98rsNW-28" value="제목 검색" style="ellipse;whiteSpace=wrap;html=1;" vertex="1" parent="1">
          <mxGeometry x="80" y="680" width="120" height="60" as="geometry" />
        </mxCell>
        <mxCell id="QGBmluoWt0_tVh98rsNW-29" value="작성자 검색" style="ellipse;whiteSpace=wrap;html=1;" vertex="1" parent="1">
          <mxGeometry x="80" y="760" width="120" height="60" as="geometry" />
        </mxCell>
        <mxCell id="QGBmluoWt0_tVh98rsNW-30" value="게시글 검색" style="ellipse;whiteSpace=wrap;html=1;" vertex="1" parent="1">
          <mxGeometry x="360" y="720" width="120" height="60" as="geometry" />
        </mxCell>
        <mxCell id="QGBmluoWt0_tVh98rsNW-31" value="" style="endArrow=block;endSize=16;endFill=0;html=1;rounded=0;exitX=1;exitY=0.5;exitDx=0;exitDy=0;exitPerimeter=0;entryX=0;entryY=0.5;entryDx=0;entryDy=0;" edge="1" parent="1" source="QGBmluoWt0_tVh98rsNW-28" target="QGBmluoWt0_tVh98rsNW-30">
          <mxGeometry width="160" relative="1" as="geometry">
            <mxPoint x="210" y="779.4100000000001" as="sourcePoint" />
            <mxPoint x="370" y="779.4100000000001" as="targetPoint" />
          </mxGeometry>
        </mxCell>
        <mxCell id="QGBmluoWt0_tVh98rsNW-32" value="" style="endArrow=block;endSize=16;endFill=0;html=1;rounded=0;exitX=1;exitY=0.5;exitDx=0;exitDy=0;entryX=-0.002;entryY=0.62;entryDx=0;entryDy=0;entryPerimeter=0;" edge="1" parent="1" source="QGBmluoWt0_tVh98rsNW-29" target="QGBmluoWt0_tVh98rsNW-30">
          <mxGeometry width="160" relative="1" as="geometry">
            <mxPoint x="200" y="810" as="sourcePoint" />
            <mxPoint x="360" y="860" as="targetPoint" />
          </mxGeometry>
        </mxCell>
        <mxCell id="QGBmluoWt0_tVh98rsNW-33" value="회원" style="shape=umlActor;verticalLabelPosition=bottom;verticalAlign=top;html=1;outlineConnect=0;" vertex="1" parent="1">
          <mxGeometry x="80" y="880" width="30" height="60" as="geometry" />
        </mxCell>
        <mxCell id="QGBmluoWt0_tVh98rsNW-34" value="비회원" style="shape=umlActor;verticalLabelPosition=bottom;verticalAlign=top;html=1;outlineConnect=0;" vertex="1" parent="1">
          <mxGeometry x="80" y="1000" width="30" height="60" as="geometry" />
        </mxCell>
        <mxCell id="QGBmluoWt0_tVh98rsNW-36" value="사용자" style="shape=umlActor;verticalLabelPosition=bottom;verticalAlign=top;html=1;outlineConnect=0;" vertex="1" parent="1">
          <mxGeometry x="240" y="930" width="30" height="60" as="geometry" />
        </mxCell>
        <mxCell id="QGBmluoWt0_tVh98rsNW-37" value="" style="endArrow=block;endSize=16;endFill=0;html=1;rounded=0;" edge="1" parent="1" source="QGBmluoWt0_tVh98rsNW-33" target="QGBmluoWt0_tVh98rsNW-36">
          <mxGeometry width="160" relative="1" as="geometry">
            <mxPoint x="150" y="920" as="sourcePoint" />
            <mxPoint x="270" y="960" as="targetPoint" />
          </mxGeometry>
        </mxCell>
        <mxCell id="QGBmluoWt0_tVh98rsNW-38" value="" style="endArrow=block;endSize=16;endFill=0;html=1;rounded=0;exitX=1;exitY=0.3333333333333333;exitDx=0;exitDy=0;exitPerimeter=0;" edge="1" parent="1" source="QGBmluoWt0_tVh98rsNW-34" target="QGBmluoWt0_tVh98rsNW-36">
          <mxGeometry width="160" relative="1" as="geometry">
            <mxPoint x="120" y="1030" as="sourcePoint" />
            <mxPoint x="280" y="970" as="targetPoint" />
          </mxGeometry>
        </mxCell>
        <mxCell id="QGBmluoWt0_tVh98rsNW-39" value="" style="endArrow=block;endSize=16;endFill=0;html=1;rounded=0;entryX=0;entryY=0.5;entryDx=0;entryDy=0;" edge="1" parent="1" source="QGBmluoWt0_tVh98rsNW-36" target="QGBmluoWt0_tVh98rsNW-40">
          <mxGeometry width="160" relative="1" as="geometry">
            <mxPoint x="330" y="950" as="sourcePoint" />
            <mxPoint x="430" y="960" as="targetPoint" />
          </mxGeometry>
        </mxCell>
        <mxCell id="QGBmluoWt0_tVh98rsNW-40" value="공지사항 조회" style="ellipse;whiteSpace=wrap;html=1;" vertex="1" parent="1">
          <mxGeometry x="400" y="930" width="120" height="60" as="geometry" />
        </mxCell>
        <mxCell id="QGBmluoWt0_tVh98rsNW-41" value="비회원" style="shape=umlActor;verticalLabelPosition=bottom;verticalAlign=top;html=1;outlineConnect=0;" vertex="1" parent="1">
          <mxGeometry x="80" y="1130" width="30" height="60" as="geometry" />
        </mxCell>
        <mxCell id="QGBmluoWt0_tVh98rsNW-42" value="회원가입" style="ellipse;whiteSpace=wrap;html=1;" vertex="1" parent="1">
          <mxGeometry x="220" y="1130" width="120" height="60" as="geometry" />
        </mxCell>
        <mxCell id="QGBmluoWt0_tVh98rsNW-45" value="이메일 인증" style="ellipse;whiteSpace=wrap;html=1;" vertex="1" parent="1">
          <mxGeometry x="440" y="1130" width="120" height="60" as="geometry" />
        </mxCell>
        <mxCell id="QGBmluoWt0_tVh98rsNW-50" value="&amp;lt;&amp;lt;include&amp;gt;&amp;gt;" style="endArrow=open;endSize=12;dashed=1;html=1;rounded=0;exitX=1;exitY=0.5;exitDx=0;exitDy=0;entryX=0;entryY=0.5;entryDx=0;entryDy=0;" edge="1" parent="1" source="QGBmluoWt0_tVh98rsNW-42" target="QGBmluoWt0_tVh98rsNW-45">
          <mxGeometry y="10" width="160" relative="1" as="geometry">
            <mxPoint x="370" y="1159.58" as="sourcePoint" />
            <mxPoint x="470" y="1160" as="targetPoint" />
            <mxPoint as="offset" />
          </mxGeometry>
        </mxCell>
        <mxCell id="QGBmluoWt0_tVh98rsNW-53" value="" style="endArrow=open;endFill=1;endSize=12;html=1;rounded=0;entryX=0;entryY=0.5;entryDx=0;entryDy=0;" edge="1" parent="1" source="QGBmluoWt0_tVh98rsNW-41" target="QGBmluoWt0_tVh98rsNW-42">
          <mxGeometry width="160" relative="1" as="geometry">
            <mxPoint x="120" y="1169" as="sourcePoint" />
            <mxPoint x="280" y="1169" as="targetPoint" />
          </mxGeometry>
        </mxCell>
        <mxCell id="QGBmluoWt0_tVh98rsNW-55" value="Gmail. 서버" style="shape=umlActor;verticalLabelPosition=bottom;verticalAlign=top;html=1;outlineConnect=0;" vertex="1" parent="1">
          <mxGeometry x="680" y="1130" width="30" height="60" as="geometry" />
        </mxCell>
        <mxCell id="QGBmluoWt0_tVh98rsNW-56" value="" style="endArrow=open;endFill=1;endSize=12;html=1;rounded=0;exitX=1;exitY=0.5;exitDx=0;exitDy=0;" edge="1" parent="1" source="QGBmluoWt0_tVh98rsNW-45" target="QGBmluoWt0_tVh98rsNW-55">
          <mxGeometry width="160" relative="1" as="geometry">
            <mxPoint x="570" y="1159.44" as="sourcePoint" />
            <mxPoint x="670" y="1160" as="targetPoint" />
          </mxGeometry>
        </mxCell>
        <mxCell id="QGBmluoWt0_tVh98rsNW-57" value="&amp;lt;&amp;lt;extend&amp;gt;&amp;gt;" style="endArrow=open;endSize=12;dashed=1;html=1;rounded=0;entryX=1.02;entryY=0.591;entryDx=0;entryDy=0;entryPerimeter=0;exitX=0;exitY=0.5;exitDx=0;exitDy=0;" edge="1" parent="1" source="QGBmluoWt0_tVh98rsNW-58" target="QGBmluoWt0_tVh98rsNW-42">
          <mxGeometry y="10" width="160" relative="1" as="geometry">
            <mxPoint x="440" y="1240" as="sourcePoint" />
            <mxPoint x="470" y="1220" as="targetPoint" />
            <mxPoint as="offset" />
          </mxGeometry>
        </mxCell>
        <mxCell id="QGBmluoWt0_tVh98rsNW-58" value="프로필 사진 등록" style="ellipse;whiteSpace=wrap;html=1;" vertex="1" parent="1">
          <mxGeometry x="440" y="1220" width="120" height="60" as="geometry" />
        </mxCell>
        <mxCell id="QGBmluoWt0_tVh98rsNW-59" style="edgeStyle=orthogonalEdgeStyle;rounded=0;orthogonalLoop=1;jettySize=auto;html=1;exitX=0.5;exitY=1;exitDx=0;exitDy=0;" edge="1" parent="1" source="QGBmluoWt0_tVh98rsNW-58" target="QGBmluoWt0_tVh98rsNW-58">
          <mxGeometry relative="1" as="geometry" />
        </mxCell>
        <mxCell id="QGBmluoWt0_tVh98rsNW-60" value="회원" style="shape=umlActor;verticalLabelPosition=bottom;verticalAlign=top;html=1;outlineConnect=0;" vertex="1" parent="1">
          <mxGeometry x="80" y="1400" width="30" height="60" as="geometry" />
        </mxCell>
        <mxCell id="QGBmluoWt0_tVh98rsNW-61" value="사용자" style="shape=umlActor;verticalLabelPosition=bottom;verticalAlign=top;html=1;outlineConnect=0;" vertex="1" parent="1">
          <mxGeometry x="240" y="1280" width="30" height="60" as="geometry" />
        </mxCell>
        <mxCell id="QGBmluoWt0_tVh98rsNW-62" value="공지사항 조회" style="ellipse;whiteSpace=wrap;html=1;" vertex="1" parent="1">
          <mxGeometry x="360" y="1320" width="120" height="60" as="geometry" />
        </mxCell>
        <mxCell id="QGBmluoWt0_tVh98rsNW-63" value="" style="endArrow=block;endSize=16;endFill=0;html=1;rounded=0;entryX=0;entryY=0.3333333333333333;entryDx=0;entryDy=0;entryPerimeter=0;" edge="1" parent="1" source="QGBmluoWt0_tVh98rsNW-41" target="QGBmluoWt0_tVh98rsNW-61">
          <mxGeometry width="160" relative="1" as="geometry">
            <mxPoint x="120" y="1207.5" as="sourcePoint" />
            <mxPoint x="250" y="1247.5" as="targetPoint" />
          </mxGeometry>
        </mxCell>
        <mxCell id="QGBmluoWt0_tVh98rsNW-64" value="" style="endArrow=block;endSize=16;endFill=0;html=1;rounded=0;exitX=1;exitY=0.3333333333333333;exitDx=0;exitDy=0;exitPerimeter=0;" edge="1" parent="1" source="QGBmluoWt0_tVh98rsNW-60" target="QGBmluoWt0_tVh98rsNW-61">
          <mxGeometry width="160" relative="1" as="geometry">
            <mxPoint x="120" y="1312.5" as="sourcePoint" />
            <mxPoint x="250" y="1258.5" as="targetPoint" />
          </mxGeometry>
        </mxCell>
        <mxCell id="QGBmluoWt0_tVh98rsNW-67" value="" style="endArrow=open;endFill=1;endSize=12;html=1;rounded=0;entryX=0;entryY=0.5;entryDx=0;entryDy=0;" edge="1" parent="1" source="QGBmluoWt0_tVh98rsNW-61" target="QGBmluoWt0_tVh98rsNW-62">
          <mxGeometry width="160" relative="1" as="geometry">
            <mxPoint x="270" y="1309.41" as="sourcePoint" />
            <mxPoint x="380" y="1309.41" as="targetPoint" />
          </mxGeometry>
        </mxCell>
        <mxCell id="QGBmluoWt0_tVh98rsNW-68" value="관리자" style="shape=umlActor;verticalLabelPosition=bottom;verticalAlign=top;html=1;outlineConnect=0;" vertex="1" parent="1">
          <mxGeometry x="80" y="1280" width="30" height="60" as="geometry" />
        </mxCell>
        <mxCell id="QGBmluoWt0_tVh98rsNW-69" value="" style="endArrow=block;endSize=16;endFill=0;html=1;rounded=0;" edge="1" parent="1" source="QGBmluoWt0_tVh98rsNW-68" target="QGBmluoWt0_tVh98rsNW-61">
          <mxGeometry width="160" relative="1" as="geometry">
            <mxPoint x="120" y="1430" as="sourcePoint" />
            <mxPoint x="250" y="1439" as="targetPoint" />
          </mxGeometry>
        </mxCell>
        <mxCell id="QGBmluoWt0_tVh98rsNW-71" value="내 정보 조회" style="ellipse;whiteSpace=wrap;html=1;" vertex="1" parent="1">
          <mxGeometry x="440" y="1440" width="120" height="60" as="geometry" />
        </mxCell>
        <mxCell id="QGBmluoWt0_tVh98rsNW-73" value="회원 탈퇴" style="ellipse;whiteSpace=wrap;html=1;" vertex="1" parent="1">
          <mxGeometry x="440" y="1500" width="120" height="60" as="geometry" />
        </mxCell>
        <mxCell id="QGBmluoWt0_tVh98rsNW-74" value="내가 쓴 게시글 조회" style="ellipse;whiteSpace=wrap;html=1;" vertex="1" parent="1">
          <mxGeometry x="440" y="1560" width="120" height="60" as="geometry" />
        </mxCell>
        <mxCell id="QGBmluoWt0_tVh98rsNW-78" value="" style="endArrow=open;endFill=1;endSize=12;html=1;rounded=0;entryX=0;entryY=0.5;entryDx=0;entryDy=0;" edge="1" parent="1" source="QGBmluoWt0_tVh98rsNW-60" target="QGBmluoWt0_tVh98rsNW-79">
          <mxGeometry width="160" relative="1" as="geometry">
            <mxPoint x="110" y="1430" as="sourcePoint" />
            <mxPoint x="210" y="1470" as="targetPoint" />
          </mxGeometry>
        </mxCell>
        <mxCell id="QGBmluoWt0_tVh98rsNW-79" value="마이페이지" style="ellipse;whiteSpace=wrap;html=1;" vertex="1" parent="1">
          <mxGeometry x="200" y="1440" width="120" height="60" as="geometry" />
        </mxCell>
        <mxCell id="QGBmluoWt0_tVh98rsNW-80" value="&amp;lt;&amp;lt;extend&amp;gt;&amp;gt;" style="endArrow=open;endSize=12;dashed=1;html=1;rounded=0;entryX=1;entryY=0.5;entryDx=0;entryDy=0;exitX=0;exitY=0.5;exitDx=0;exitDy=0;" edge="1" parent="1" source="QGBmluoWt0_tVh98rsNW-71" target="QGBmluoWt0_tVh98rsNW-79">
          <mxGeometry y="10" width="160" relative="1" as="geometry">
            <mxPoint x="470" y="1450" as="sourcePoint" />
            <mxPoint x="382" y="1383.5" as="targetPoint" />
            <mxPoint as="offset" />
          </mxGeometry>
        </mxCell>
        <mxCell id="QGBmluoWt0_tVh98rsNW-81" value="&amp;lt;&amp;lt;extend&amp;gt;&amp;gt;" style="endArrow=open;endSize=12;dashed=1;html=1;rounded=0;entryX=1;entryY=0.5;entryDx=0;entryDy=0;exitX=0;exitY=0.5;exitDx=0;exitDy=0;" edge="1" parent="1" source="QGBmluoWt0_tVh98rsNW-73" target="QGBmluoWt0_tVh98rsNW-79">
          <mxGeometry y="10" width="160" relative="1" as="geometry">
            <mxPoint x="490" y="1490" as="sourcePoint" />
            <mxPoint x="330" y="1490" as="targetPoint" />
            <mxPoint as="offset" />
          </mxGeometry>
        </mxCell>
        <mxCell id="QGBmluoWt0_tVh98rsNW-82" value="&amp;lt;&amp;lt;extend&amp;gt;&amp;gt;" style="endArrow=open;endSize=12;dashed=1;html=1;rounded=0;exitX=0;exitY=0.5;exitDx=0;exitDy=0;entryX=1;entryY=0.5;entryDx=0;entryDy=0;" edge="1" parent="1" source="QGBmluoWt0_tVh98rsNW-74" target="QGBmluoWt0_tVh98rsNW-79">
          <mxGeometry y="10" width="160" relative="1" as="geometry">
            <mxPoint x="490" y="1570" as="sourcePoint" />
            <mxPoint x="340" y="1500" as="targetPoint" />
            <mxPoint as="offset" />
          </mxGeometry>
        </mxCell>
        <mxCell id="QGBmluoWt0_tVh98rsNW-83" value="" style="endArrow=open;endFill=1;endSize=12;html=1;rounded=0;entryX=0;entryY=0.5;entryDx=0;entryDy=0;exitX=1;exitY=1;exitDx=0;exitDy=0;exitPerimeter=0;" edge="1" parent="1" target="QGBmluoWt0_tVh98rsNW-84" source="QGBmluoWt0_tVh98rsNW-60">
          <mxGeometry width="160" relative="1" as="geometry">
            <mxPoint x="70" y="1597" as="sourcePoint" />
            <mxPoint x="170" y="1630" as="targetPoint" />
          </mxGeometry>
        </mxCell>
        <mxCell id="QGBmluoWt0_tVh98rsNW-84" value="자유 게시판&lt;br&gt;목록 조회" style="ellipse;whiteSpace=wrap;html=1;" vertex="1" parent="1">
          <mxGeometry x="200" y="1560" width="120" height="60" as="geometry" />
        </mxCell>
        <mxCell id="QGBmluoWt0_tVh98rsNW-85" value="자유 게시판&lt;br&gt;글 작성" style="ellipse;whiteSpace=wrap;html=1;" vertex="1" parent="1">
          <mxGeometry x="200" y="1620" width="120" height="60" as="geometry" />
        </mxCell>
        <mxCell id="QGBmluoWt0_tVh98rsNW-86" value="" style="endArrow=open;endFill=1;endSize=12;html=1;rounded=0;entryX=0;entryY=0.5;entryDx=0;entryDy=0;" edge="1" parent="1" source="QGBmluoWt0_tVh98rsNW-60" target="QGBmluoWt0_tVh98rsNW-85">
          <mxGeometry width="160" relative="1" as="geometry">
            <mxPoint x="120" y="1510" as="sourcePoint" />
            <mxPoint x="210" y="1610" as="targetPoint" />
          </mxGeometry>
        </mxCell>
        <mxCell id="QGBmluoWt0_tVh98rsNW-87" value="게시글 삭제" style="ellipse;whiteSpace=wrap;html=1;" vertex="1" parent="1">
          <mxGeometry x="440" y="1720" width="120" height="60" as="geometry" />
        </mxCell>
        <mxCell id="QGBmluoWt0_tVh98rsNW-89" value="자유 게시판&lt;br&gt;글 상세조회" style="ellipse;whiteSpace=wrap;html=1;" vertex="1" parent="1">
          <mxGeometry x="200" y="1680" width="120" height="60" as="geometry" />
        </mxCell>
        <mxCell id="QGBmluoWt0_tVh98rsNW-90" value="" style="endArrow=open;endFill=1;endSize=12;html=1;rounded=0;entryX=0;entryY=0.5;entryDx=0;entryDy=0;" edge="1" parent="1" source="QGBmluoWt0_tVh98rsNW-60" target="QGBmluoWt0_tVh98rsNW-89">
          <mxGeometry width="160" relative="1" as="geometry">
            <mxPoint x="115" y="1470" as="sourcePoint" />
            <mxPoint x="210" y="1770" as="targetPoint" />
          </mxGeometry>
        </mxCell>
        <mxCell id="QGBmluoWt0_tVh98rsNW-91" value="&amp;lt;&amp;lt;extend&amp;gt;&amp;gt;" style="endArrow=open;endSize=12;dashed=1;html=1;rounded=0;exitX=0;exitY=0.5;exitDx=0;exitDy=0;entryX=1;entryY=0.5;entryDx=0;entryDy=0;" edge="1" parent="1" source="QGBmluoWt0_tVh98rsNW-87" target="QGBmluoWt0_tVh98rsNW-89">
          <mxGeometry y="10" width="160" relative="1" as="geometry">
            <mxPoint x="430" y="1839.44" as="sourcePoint" />
            <mxPoint x="340" y="1830" as="targetPoint" />
            <mxPoint as="offset" />
          </mxGeometry>
        </mxCell>
        <mxCell id="QGBmluoWt0_tVh98rsNW-92" value="게시글 수정" style="ellipse;whiteSpace=wrap;html=1;" vertex="1" parent="1">
          <mxGeometry x="440" y="1780" width="120" height="60" as="geometry" />
        </mxCell>
        <mxCell id="QGBmluoWt0_tVh98rsNW-93" value="&amp;lt;&amp;lt;extend&amp;gt;&amp;gt;" style="endArrow=open;endSize=12;dashed=1;html=1;rounded=0;exitX=0;exitY=0.5;exitDx=0;exitDy=0;entryX=1;entryY=0.5;entryDx=0;entryDy=0;" edge="1" parent="1" source="QGBmluoWt0_tVh98rsNW-92" target="QGBmluoWt0_tVh98rsNW-89">
          <mxGeometry y="10" width="160" relative="1" as="geometry">
            <mxPoint x="430" y="1919.44" as="sourcePoint" />
            <mxPoint x="320" y="1920" as="targetPoint" />
            <mxPoint as="offset" />
          </mxGeometry>
        </mxCell>
        <mxCell id="QGBmluoWt0_tVh98rsNW-94" value="" style="endArrow=open;endFill=1;endSize=12;html=1;rounded=0;entryX=0.5;entryY=0;entryDx=0;entryDy=0;" edge="1" parent="1" target="QGBmluoWt0_tVh98rsNW-95" source="QGBmluoWt0_tVh98rsNW-60">
          <mxGeometry width="160" relative="1" as="geometry">
            <mxPoint x="-90" y="1520" as="sourcePoint" />
            <mxPoint x="10" y="1553" as="targetPoint" />
          </mxGeometry>
        </mxCell>
        <mxCell id="QGBmluoWt0_tVh98rsNW-95" value="로그인" style="ellipse;whiteSpace=wrap;html=1;" vertex="1" parent="1">
          <mxGeometry y="1600" width="120" height="60" as="geometry" />
        </mxCell>
      </root>
    </mxGraphModel>
  </diagram>
</mxfile>
